<svg width="24" height="24" viewBox="0 0 24 24" fill="none" xmlns="http://www.w3.org/2000/svg">
<path d="M7.10396 0H3.04798C1.36799 0 0 1.37999 0 3.07318V7.16396C0 8.86795 1.36799 10.2359 3.04798 10.2359H7.10396C8.79595 10.2359 10.1519 8.86795 10.1519 7.16396V3.07318C10.1519 1.37999 8.79595 0 7.10396 0Z" fill="white"/>
<path d="M7.10396 13.7637H3.04798C1.36799 13.7637 0 15.1329 0 16.8369V20.9276C0 22.6196 1.36799 23.9996 3.04798 23.9996H7.10396C8.79595 23.9996 10.1519 22.6196 10.1519 20.9276V16.8369C10.1519 15.1329 8.79595 13.7637 7.10396 13.7637Z" fill="white"/>
<path d="M20.9516 0H16.8956C15.2036 0 13.8477 1.37999 13.8477 3.07318V7.16396C13.8477 8.86795 15.2036 10.2359 16.8956 10.2359H20.9516C22.6316 10.2359 23.9996 8.86795 23.9996 7.16396V3.07318C23.9996 1.37999 22.6316 0 20.9516 0Z" fill="white" fill-opacity="0.4"/>
<path d="M20.9516 13.7637H16.8956C15.2036 13.7637 13.8477 15.1329 13.8477 16.8369V20.9276C13.8477 22.6196 15.2036 23.9996 16.8956 23.9996H20.9516C22.6316 23.9996 23.9996 22.6196 23.9996 20.9276V16.8369C23.9996 15.1329 22.6316 13.7637 20.9516 13.7637Z" fill="white"/>
</svg>
