<svg width="18" height="18" viewBox="0 0 18 18" fill="none" xmlns="http://www.w3.org/2000/svg">
<path d="M16.5228 11.6836C16.2414 12.4612 15.8398 13.1944 15.3289 13.8551C14.3995 15.0572 13.1469 15.9698 11.7178 16.486C10.2887 17.0022 8.74204 17.1008 7.25895 16.7701C5.77585 16.4394 4.41761 15.6931 3.34315 14.6187C2.26869 13.5442 1.52245 12.186 1.19175 10.7029C0.861059 9.21977 0.959584 7.67317 1.4758 6.24402C1.99202 4.81488 2.90457 3.5623 4.10669 2.63287C4.76741 2.12202 5.50059 1.72041 6.2782 1.43906C5.89719 2.49218 5.73855 3.62181 5.82312 4.75578C5.96561 6.6666 6.78921 8.4628 8.14411 9.81771C9.49901 11.1726 11.2952 11.9962 13.206 12.1387C14.34 12.2233 15.4696 12.0646 16.5228 11.6836Z" stroke="url(#paint0_linear_809_6748)" stroke-width="2" stroke-linecap="round" stroke-linejoin="round"/>
<defs>
<linearGradient id="paint0_linear_809_6748" x1="15.7166" y1="-7.66154e-07" x2="2.39491" y2="17.9618" gradientUnits="userSpaceOnUse">
<stop stop-color="#E250E5"/>
<stop offset="1" stop-color="#4B50E6"/>
</linearGradient>
</defs>
</svg>
